<mxfile host="app.diagrams.net" modified="2024-04-25T23:11:30.376Z" agent="Mozilla/5.0 (Windows NT 10.0; Win64; x64) AppleWebKit/537.36 (KHTML, like Gecko) Chrome/124.0.0.0 Safari/537.36" etag="0OgxHfyhgqX6-pnSXzah" version="24.3.0" type="github">
  <diagram id="R2lEEEUBdFMjLlhIrx00" name="Page-1">
    <mxGraphModel dx="880" dy="468" grid="1" gridSize="10" guides="1" tooltips="1" connect="1" arrows="1" fold="1" page="1" pageScale="1" pageWidth="850" pageHeight="1100" math="0" shadow="0" extFonts="Permanent Marker^https://fonts.googleapis.com/css?family=Permanent+Marker">
      <root>
        <mxCell id="0" />
        <mxCell id="1" parent="0" />
        <mxCell id="ZTX4RmY4iUhBusowAWRf-2" value="Cliente" style="whiteSpace=wrap;html=1;align=center;" vertex="1" parent="1">
          <mxGeometry x="160" y="260" width="100" height="40" as="geometry" />
        </mxCell>
        <mxCell id="ZTX4RmY4iUhBusowAWRf-3" value="Proveedor" style="whiteSpace=wrap;html=1;align=center;" vertex="1" parent="1">
          <mxGeometry x="670" y="190" width="100" height="40" as="geometry" />
        </mxCell>
        <mxCell id="ZTX4RmY4iUhBusowAWRf-10" style="edgeStyle=orthogonalEdgeStyle;rounded=0;orthogonalLoop=1;jettySize=auto;html=1;exitX=1;exitY=1;exitDx=0;exitDy=0;entryX=0.25;entryY=0;entryDx=0;entryDy=0;endArrow=none;endFill=0;" edge="1" parent="1" source="ZTX4RmY4iUhBusowAWRf-4" target="ZTX4RmY4iUhBusowAWRf-2">
          <mxGeometry relative="1" as="geometry" />
        </mxCell>
        <mxCell id="ZTX4RmY4iUhBusowAWRf-4" value="Apellidos" style="ellipse;whiteSpace=wrap;html=1;align=center;" vertex="1" parent="1">
          <mxGeometry x="50" y="200" width="100" height="40" as="geometry" />
        </mxCell>
        <mxCell id="ZTX4RmY4iUhBusowAWRf-11" style="edgeStyle=orthogonalEdgeStyle;rounded=0;orthogonalLoop=1;jettySize=auto;html=1;exitX=1;exitY=0.5;exitDx=0;exitDy=0;entryX=0;entryY=0.5;entryDx=0;entryDy=0;endArrow=none;endFill=0;" edge="1" parent="1" source="ZTX4RmY4iUhBusowAWRf-5" target="ZTX4RmY4iUhBusowAWRf-2">
          <mxGeometry relative="1" as="geometry" />
        </mxCell>
        <mxCell id="ZTX4RmY4iUhBusowAWRf-5" value="DNI" style="ellipse;whiteSpace=wrap;html=1;align=center;" vertex="1" parent="1">
          <mxGeometry x="30" y="260" width="100" height="40" as="geometry" />
        </mxCell>
        <mxCell id="ZTX4RmY4iUhBusowAWRf-6" value="Dirección" style="ellipse;whiteSpace=wrap;html=1;align=center;" vertex="1" parent="1">
          <mxGeometry x="50" y="330" width="100" height="40" as="geometry" />
        </mxCell>
        <mxCell id="ZTX4RmY4iUhBusowAWRf-7" value="Fech. Nacimiento" style="ellipse;whiteSpace=wrap;html=1;align=center;" vertex="1" parent="1">
          <mxGeometry x="150" y="370" width="100" height="40" as="geometry" />
        </mxCell>
        <mxCell id="ZTX4RmY4iUhBusowAWRf-9" style="edgeStyle=orthogonalEdgeStyle;rounded=0;orthogonalLoop=1;jettySize=auto;html=1;exitX=1;exitY=1;exitDx=0;exitDy=0;entryX=0.5;entryY=0;entryDx=0;entryDy=0;startArrow=none;startFill=0;endArrow=none;endFill=0;" edge="1" parent="1" source="ZTX4RmY4iUhBusowAWRf-8" target="ZTX4RmY4iUhBusowAWRf-2">
          <mxGeometry relative="1" as="geometry" />
        </mxCell>
        <mxCell id="ZTX4RmY4iUhBusowAWRf-8" value="Nombre" style="ellipse;whiteSpace=wrap;html=1;align=center;" vertex="1" parent="1">
          <mxGeometry x="90" y="150" width="100" height="40" as="geometry" />
        </mxCell>
        <mxCell id="ZTX4RmY4iUhBusowAWRf-12" style="edgeStyle=orthogonalEdgeStyle;rounded=0;orthogonalLoop=1;jettySize=auto;html=1;exitX=1;exitY=0.5;exitDx=0;exitDy=0;entryX=0.11;entryY=1;entryDx=0;entryDy=0;entryPerimeter=0;endArrow=none;endFill=0;" edge="1" parent="1" source="ZTX4RmY4iUhBusowAWRf-6" target="ZTX4RmY4iUhBusowAWRf-2">
          <mxGeometry relative="1" as="geometry" />
        </mxCell>
        <mxCell id="ZTX4RmY4iUhBusowAWRf-13" style="edgeStyle=orthogonalEdgeStyle;rounded=0;orthogonalLoop=1;jettySize=auto;html=1;exitX=0.5;exitY=0;exitDx=0;exitDy=0;entryX=0.37;entryY=1.075;entryDx=0;entryDy=0;entryPerimeter=0;endArrow=none;endFill=0;" edge="1" parent="1" source="ZTX4RmY4iUhBusowAWRf-7" target="ZTX4RmY4iUhBusowAWRf-2">
          <mxGeometry relative="1" as="geometry" />
        </mxCell>
        <mxCell id="ZTX4RmY4iUhBusowAWRf-15" value="código" style="ellipse;whiteSpace=wrap;html=1;align=center;" vertex="1" parent="1">
          <mxGeometry x="490" y="350" width="100" height="30" as="geometry" />
        </mxCell>
        <mxCell id="ZTX4RmY4iUhBusowAWRf-18" style="edgeStyle=orthogonalEdgeStyle;rounded=0;orthogonalLoop=1;jettySize=auto;html=1;exitX=0.5;exitY=0;exitDx=0;exitDy=0;entryX=0;entryY=1;entryDx=0;entryDy=0;endArrow=none;endFill=0;" edge="1" parent="1" source="ZTX4RmY4iUhBusowAWRf-16" target="ZTX4RmY4iUhBusowAWRf-47">
          <mxGeometry relative="1" as="geometry">
            <mxPoint x="440" y="290" as="targetPoint" />
          </mxGeometry>
        </mxCell>
        <mxCell id="ZTX4RmY4iUhBusowAWRf-16" value="nombre" style="ellipse;whiteSpace=wrap;html=1;align=center;" vertex="1" parent="1">
          <mxGeometry x="310" y="330" width="100" height="40" as="geometry" />
        </mxCell>
        <mxCell id="ZTX4RmY4iUhBusowAWRf-17" style="edgeStyle=orthogonalEdgeStyle;rounded=0;orthogonalLoop=1;jettySize=auto;html=1;exitX=0;exitY=0;exitDx=0;exitDy=0;entryX=0.75;entryY=1;entryDx=0;entryDy=0;endArrow=none;endFill=0;" edge="1" parent="1" source="ZTX4RmY4iUhBusowAWRf-15" target="ZTX4RmY4iUhBusowAWRf-47">
          <mxGeometry relative="1" as="geometry">
            <mxPoint x="459" y="291" as="targetPoint" />
          </mxGeometry>
        </mxCell>
        <mxCell id="ZTX4RmY4iUhBusowAWRf-19" value="Compra" style="shape=rhombus;perimeter=rhombusPerimeter;whiteSpace=wrap;html=1;align=center;" vertex="1" parent="1">
          <mxGeometry x="295" y="130" width="80" height="60" as="geometry" />
        </mxCell>
        <mxCell id="ZTX4RmY4iUhBusowAWRf-24" value="" style="endArrow=none;html=1;rounded=0;exitX=1;exitY=0.5;exitDx=0;exitDy=0;entryX=0;entryY=1;entryDx=0;entryDy=0;" edge="1" parent="1" source="ZTX4RmY4iUhBusowAWRf-2" target="ZTX4RmY4iUhBusowAWRf-19">
          <mxGeometry relative="1" as="geometry">
            <mxPoint x="300" y="250" as="sourcePoint" />
            <mxPoint x="460" y="250" as="targetPoint" />
          </mxGeometry>
        </mxCell>
        <mxCell id="ZTX4RmY4iUhBusowAWRf-25" value="1...n" style="resizable=0;html=1;whiteSpace=wrap;align=left;verticalAlign=bottom;" connectable="0" vertex="1" parent="ZTX4RmY4iUhBusowAWRf-24">
          <mxGeometry x="-1" relative="1" as="geometry">
            <mxPoint x="-20" y="-20" as="offset" />
          </mxGeometry>
        </mxCell>
        <mxCell id="ZTX4RmY4iUhBusowAWRf-27" value="" style="endArrow=none;html=1;rounded=0;entryX=0.25;entryY=0;entryDx=0;entryDy=0;exitX=1;exitY=1;exitDx=0;exitDy=0;" edge="1" parent="1" source="ZTX4RmY4iUhBusowAWRf-19" target="ZTX4RmY4iUhBusowAWRf-47">
          <mxGeometry relative="1" as="geometry">
            <mxPoint x="350" y="320.86" as="sourcePoint" />
            <mxPoint x="404.64466094067257" y="255.85786437626905" as="targetPoint" />
          </mxGeometry>
        </mxCell>
        <mxCell id="ZTX4RmY4iUhBusowAWRf-29" value="1..N" style="resizable=0;html=1;whiteSpace=wrap;align=right;verticalAlign=bottom;" connectable="0" vertex="1" parent="ZTX4RmY4iUhBusowAWRf-27">
          <mxGeometry x="1" relative="1" as="geometry">
            <mxPoint x="-15" y="4" as="offset" />
          </mxGeometry>
        </mxCell>
        <mxCell id="ZTX4RmY4iUhBusowAWRf-35" style="edgeStyle=orthogonalEdgeStyle;rounded=0;orthogonalLoop=1;jettySize=auto;html=1;exitX=0.5;exitY=1;exitDx=0;exitDy=0;entryX=0.25;entryY=0;entryDx=0;entryDy=0;endArrow=none;endFill=0;" edge="1" parent="1" source="ZTX4RmY4iUhBusowAWRf-30" target="ZTX4RmY4iUhBusowAWRf-3">
          <mxGeometry relative="1" as="geometry" />
        </mxCell>
        <mxCell id="ZTX4RmY4iUhBusowAWRf-30" value="Dirección" style="ellipse;whiteSpace=wrap;html=1;align=center;" vertex="1" parent="1">
          <mxGeometry x="630" y="100" width="100" height="40" as="geometry" />
        </mxCell>
        <mxCell id="ZTX4RmY4iUhBusowAWRf-34" style="edgeStyle=orthogonalEdgeStyle;rounded=0;orthogonalLoop=1;jettySize=auto;html=1;exitX=0;exitY=1;exitDx=0;exitDy=0;entryX=0.75;entryY=0;entryDx=0;entryDy=0;endArrow=none;endFill=0;" edge="1" parent="1" source="ZTX4RmY4iUhBusowAWRf-31" target="ZTX4RmY4iUhBusowAWRf-3">
          <mxGeometry relative="1" as="geometry" />
        </mxCell>
        <mxCell id="ZTX4RmY4iUhBusowAWRf-31" value="Nombre" style="ellipse;whiteSpace=wrap;html=1;align=center;" vertex="1" parent="1">
          <mxGeometry x="740" y="130" width="100" height="40" as="geometry" />
        </mxCell>
        <mxCell id="ZTX4RmY4iUhBusowAWRf-32" value="NIF" style="ellipse;whiteSpace=wrap;html=1;align=center;" vertex="1" parent="1">
          <mxGeometry x="750" y="250" width="100" height="40" as="geometry" />
        </mxCell>
        <mxCell id="ZTX4RmY4iUhBusowAWRf-33" style="edgeStyle=orthogonalEdgeStyle;rounded=0;orthogonalLoop=1;jettySize=auto;html=1;exitX=0;exitY=0;exitDx=0;exitDy=0;entryX=0.68;entryY=1.075;entryDx=0;entryDy=0;entryPerimeter=0;endArrow=none;endFill=0;" edge="1" parent="1" source="ZTX4RmY4iUhBusowAWRf-32" target="ZTX4RmY4iUhBusowAWRf-3">
          <mxGeometry relative="1" as="geometry" />
        </mxCell>
        <mxCell id="ZTX4RmY4iUhBusowAWRf-38" value="Suministra" style="shape=rhombus;perimeter=rhombusPerimeter;whiteSpace=wrap;html=1;align=center;" vertex="1" parent="1">
          <mxGeometry x="490" y="170" width="120" height="60" as="geometry" />
        </mxCell>
        <mxCell id="ZTX4RmY4iUhBusowAWRf-40" value="" style="endArrow=none;html=1;rounded=0;entryX=0;entryY=0.5;entryDx=0;entryDy=0;exitX=1;exitY=0.5;exitDx=0;exitDy=0;" edge="1" parent="1" source="ZTX4RmY4iUhBusowAWRf-38" target="ZTX4RmY4iUhBusowAWRf-3">
          <mxGeometry relative="1" as="geometry">
            <mxPoint x="500" y="259" as="sourcePoint" />
            <mxPoint x="660" y="259" as="targetPoint" />
          </mxGeometry>
        </mxCell>
        <mxCell id="ZTX4RmY4iUhBusowAWRf-42" value="1...1" style="resizable=0;html=1;whiteSpace=wrap;align=right;verticalAlign=bottom;" connectable="0" vertex="1" parent="ZTX4RmY4iUhBusowAWRf-40">
          <mxGeometry x="1" relative="1" as="geometry">
            <mxPoint x="-10" y="20" as="offset" />
          </mxGeometry>
        </mxCell>
        <mxCell id="ZTX4RmY4iUhBusowAWRf-44" value="" style="endArrow=none;html=1;rounded=0;entryX=0;entryY=1;entryDx=0;entryDy=0;exitX=0.75;exitY=0;exitDx=0;exitDy=0;" edge="1" parent="1" source="ZTX4RmY4iUhBusowAWRf-47" target="ZTX4RmY4iUhBusowAWRf-38">
          <mxGeometry relative="1" as="geometry">
            <mxPoint x="475.35533905932743" y="255.85786437626905" as="sourcePoint" />
            <mxPoint x="470" y="229" as="targetPoint" />
          </mxGeometry>
        </mxCell>
        <mxCell id="ZTX4RmY4iUhBusowAWRf-45" value="1...N" style="resizable=0;html=1;whiteSpace=wrap;align=left;verticalAlign=bottom;" connectable="0" vertex="1" parent="ZTX4RmY4iUhBusowAWRf-44">
          <mxGeometry x="-1" relative="1" as="geometry">
            <mxPoint x="-25" y="-10" as="offset" />
          </mxGeometry>
        </mxCell>
        <mxCell id="ZTX4RmY4iUhBusowAWRf-47" value="Entity" style="whiteSpace=wrap;html=1;align=center;" vertex="1" parent="1">
          <mxGeometry x="400" y="250" width="100" height="40" as="geometry" />
        </mxCell>
        <mxCell id="ZTX4RmY4iUhBusowAWRf-50" style="edgeStyle=orthogonalEdgeStyle;rounded=0;orthogonalLoop=1;jettySize=auto;html=1;exitX=0.5;exitY=0;exitDx=0;exitDy=0;entryX=0.5;entryY=1;entryDx=0;entryDy=0;endArrow=none;endFill=0;" edge="1" parent="1" source="ZTX4RmY4iUhBusowAWRf-48" target="ZTX4RmY4iUhBusowAWRf-47">
          <mxGeometry relative="1" as="geometry" />
        </mxCell>
        <mxCell id="ZTX4RmY4iUhBusowAWRf-48" value="Precio" style="ellipse;whiteSpace=wrap;html=1;align=center;" vertex="1" parent="1">
          <mxGeometry x="400" y="370" width="100" height="40" as="geometry" />
        </mxCell>
      </root>
    </mxGraphModel>
  </diagram>
</mxfile>
